<svg xmlns="http://www.w3.org/2000/svg" width="21" height="19" viewBox="0 0 21 19" copnr="75"
    style="fill: rgb(255, 171, 27);; color: rgb(47, 47, 47); display: block; margin: auto;">
    <title>50% chance of playing</title>
    <path
        d="M20.7588154,16.1639512 L12.2281283,0.988998469 C11.879948,0.378360845 11.2183513,0 10.4998191,0 C9.78128692,0 9.11969017,0.378360845 8.77150994,0.988998469 L0.240822794,16.1639512 C-0.0919261004,16.7567989 -0.0793835139,17.4770055 0.275542057,18.0585846 C0.629499774,18.6401876 1.27376405,18.9979533 1.9691369,18.9999129 L19.0053273,18.9999129 C19.7055147,19.0063793 20.357507,18.6523673 20.7182051,18.0688941 C21.0789032,17.485421 21.0943345,16.7605391 20.7587117,16.1639512 L20.7588154,16.1639512 Z">
    </path>
    <path fill="currentColor"
        d="M10.4998191,17.0817658 C10.1005303,17.0817658 9.73983219,16.8485635 9.5874447,16.4898532 C9.43409676,16.1311524 9.51896909,15.7190817 9.80155504,15.4446556 C10.084141,15.1702295 10.5085076,15.087825 10.8778966,15.2367406 C11.2472857,15.3847163 11.4874466,15.73498 11.4874466,16.1227154 C11.4874466,16.3774574 11.3832838,16.6209548 11.1981029,16.8007727 C11.012922,16.9805906 10.762174,17.0817442 10.4998413,17.0817442 L10.4998191,17.0817658 Z M12.3390363,6.77220598 L11.5964066,13.2456505 C11.5308247,13.7860393 11.0601616,14.1934347 10.4998191,14.1934347 C9.93947659,14.1934347 9.46880862,13.7860393 9.40323163,13.2456505 L8.66060187,6.77220598 C8.62298893,6.4678342 8.72136182,6.16156835 8.93162544,5.93305576 C9.14187672,5.70360092 9.44278522,5.5724849 9.75913987,5.57341497 L11.2405477,5.57341497 C11.5568777,5.57248346 11.857801,5.70360092 12.0680622,5.93305576 C12.2783134,6.16157315 12.3766888,6.4678342 12.3390857,6.77220598 L12.3390363,6.77220598 Z">
    </path>
</svg>